<svg xmlns="http://www.w3.org/2000/svg" width="15" height="14.999" viewBox="0 0 15 14.999">
  <g id="Edit" transform="translate(1.5 0.5)">
    <path id="Icon" d="M10.261,14H1.584A1.589,1.589,0,0,1,0,12.409V3.7A1.589,1.589,0,0,1,1.584,2.109H8.961L8.1,2.966H1.584a.733.733,0,0,0-.73.733v8.709a.733.733,0,0,0,.73.734h8.677a.733.733,0,0,0,.73-.734V6l.853-.85v7.255A1.589,1.589,0,0,1,10.261,14ZM4.921,9.029v0l.369-1.374,6.234-6.213,1.025,1.016L6.318,8.667l-1.4.362Zm8.654-7.589h0L12.549.425l.157-.158.141-.142a.43.43,0,0,1,.606,0l.422.417a.418.418,0,0,1,.125.3.424.424,0,0,1-.127.3l-.25.252-.047.048Z" transform="translate(-1)" fill="#fff" stroke="#fff" stroke-width="1"/>
  </g>
</svg>
